solid OpenSCAD_Model
  facet normal 0 -1 0
    outer loop
      vertex 0 -42.5 -4
      vertex 75 -42.5 -2
      vertex 0 -42.5 -2
    endloop
  endfacet
  facet normal 0 -1 -0
    outer loop
      vertex 75 -42.5 -2
      vertex 0 -42.5 -4
      vertex 75 -42.5 -4
    endloop
  endfacet
  facet normal -0 0 1
    outer loop
      vertex 0 38.5 0
      vertex 75 -36.5 0
      vertex 75 38.5 0
    endloop
  endfacet
  facet normal 0 0 1
    outer loop
      vertex 75 -36.5 0
      vertex 0 38.5 0
      vertex 0 -36.5 0
    endloop
  endfacet
  facet normal 0 1 -0
    outer loop
      vertex 75 42.5 -4
      vertex 0 42.5 -2
      vertex 75 42.5 -2
    endloop
  endfacet
  facet normal 0 1 0
    outer loop
      vertex 0 42.5 -2
      vertex 75 42.5 -4
      vertex 0 42.5 -4
    endloop
  endfacet
  facet normal -1 0 0
    outer loop
      vertex 0 42.5 -4
      vertex 0 38.5 -2
      vertex 0 42.5 -2
    endloop
  endfacet
  facet normal -1 0 0
    outer loop
      vertex 0 38.5 -2
      vertex 0 -36.5 -2
      vertex 0 38.5 0
    endloop
  endfacet
  facet normal -1 0 0
    outer loop
      vertex 0 42.5 -4
      vertex 0 -36.5 -2
      vertex 0 38.5 -2
    endloop
  endfacet
  facet normal -1 0 0
    outer loop
      vertex 0 -42.5 -4
      vertex 0 -36.5 -2
      vertex 0 42.5 -4
    endloop
  endfacet
  facet normal -1 -0 0
    outer loop
      vertex 0 -36.5 -2
      vertex 0 -42.5 -4
      vertex 0 -42.5 -2
    endloop
  endfacet
  facet normal -1 -0 0
    outer loop
      vertex 0 38.5 0
      vertex 0 -36.5 -2
      vertex 0 -36.5 0
    endloop
  endfacet
  facet normal 0 0 -1
    outer loop
      vertex 0 -42.5 -4
      vertex 75 42.5 -4
      vertex 75 -42.5 -4
    endloop
  endfacet
  facet normal -0 0 -1
    outer loop
      vertex 75 42.5 -4
      vertex 0 -42.5 -4
      vertex 0 42.5 -4
    endloop
  endfacet
  facet normal 1 0 0
    outer loop
      vertex 75 38.5 0
      vertex 75 -36.5 0
      vertex 75 38.5 -2
    endloop
  endfacet
  facet normal 1 -0 0
    outer loop
      vertex 75 38.5 -2
      vertex 75 42.5 -4
      vertex 75 42.5 -2
    endloop
  endfacet
  facet normal 1 0 0
    outer loop
      vertex 75 -36.5 -2
      vertex 75 38.5 -2
      vertex 75 -36.5 0
    endloop
  endfacet
  facet normal 1 0 0
    outer loop
      vertex 75 38.5 -2
      vertex 75 -36.5 -2
      vertex 75 42.5 -4
    endloop
  endfacet
  facet normal 1 0 0
    outer loop
      vertex 75 -42.5 -4
      vertex 75 -36.5 -2
      vertex 75 -42.5 -2
    endloop
  endfacet
  facet normal 1 0 0
    outer loop
      vertex 75 -36.5 -2
      vertex 75 -42.5 -4
      vertex 75 42.5 -4
    endloop
  endfacet
  facet normal 0 -1 0
    outer loop
      vertex 0 -36.5 -2
      vertex 75 -36.5 0
      vertex 0 -36.5 0
    endloop
  endfacet
  facet normal 0 -1 -0
    outer loop
      vertex 75 -36.5 0
      vertex 0 -36.5 -2
      vertex 75 -36.5 -2
    endloop
  endfacet
  facet normal -0 0 1
    outer loop
      vertex 0 -36.5 -2
      vertex 75 -42.5 -2
      vertex 75 -36.5 -2
    endloop
  endfacet
  facet normal 0 0 1
    outer loop
      vertex 75 -42.5 -2
      vertex 0 -36.5 -2
      vertex 0 -42.5 -2
    endloop
  endfacet
  facet normal 0 1 -0
    outer loop
      vertex 75 38.5 -2
      vertex 0 38.5 0
      vertex 75 38.5 0
    endloop
  endfacet
  facet normal 0 1 0
    outer loop
      vertex 0 38.5 0
      vertex 75 38.5 -2
      vertex 0 38.5 -2
    endloop
  endfacet
  facet normal -0 0 1
    outer loop
      vertex 0 42.5 -2
      vertex 75 38.5 -2
      vertex 75 42.5 -2
    endloop
  endfacet
  facet normal 0 0 1
    outer loop
      vertex 75 38.5 -2
      vertex 0 42.5 -2
      vertex 0 38.5 -2
    endloop
  endfacet
endsolid OpenSCAD_Model
