solid OpenSCAD_Model
  facet normal -1 0 0
    outer loop
      vertex -25 -3 -4.5
      vertex -25 3 4.5
      vertex -25 3 -4.5
    endloop
  endfacet
  facet normal -1 -0 0
    outer loop
      vertex -25 3 4.5
      vertex -25 -3 -4.5
      vertex -25 -3 4.5
    endloop
  endfacet
  facet normal -0 0 1
    outer loop
      vertex -25 3 4.5
      vertex -22 -3 4.5
      vertex -22 3 4.5
    endloop
  endfacet
  facet normal 0 0 1
    outer loop
      vertex -22 -3 4.5
      vertex -25 3 4.5
      vertex -25 -3 4.5
    endloop
  endfacet
  facet normal -0 0 1
    outer loop
      vertex -16 3 4.5
      vertex -13.05 -3 4.5
      vertex -13.05 3 4.5
    endloop
  endfacet
  facet normal 0 0 1
    outer loop
      vertex -13.05 -3 4.5
      vertex -16 3 4.5
      vertex -16 -3 4.5
    endloop
  endfacet
  facet normal 1 0 0
    outer loop
      vertex 25 -3.05 -0.5
      vertex 25 -10 -0.5
      vertex 25 -3.05 -0.549999
    endloop
  endfacet
  facet normal 1 0 0
    outer loop
      vertex 25 3.05 -0.549999
      vertex 25 10 -0.5
      vertex 25 3.05 -0.5
    endloop
  endfacet
  facet normal 1 0 0
    outer loop
      vertex 25 10 -0.5
      vertex 25 3.05 -0.549999
      vertex 25 10 -4.5
    endloop
  endfacet
  facet normal 1 -0 0
    outer loop
      vertex 25 -3.05 -0.549999
      vertex 25 10 -4.5
      vertex 25 3.05 -0.549999
    endloop
  endfacet
  facet normal 1 0 0
    outer loop
      vertex 25 -10 -4.5
      vertex 25 -3.05 -0.549999
      vertex 25 -10 -0.5
    endloop
  endfacet
  facet normal 1 0 0
    outer loop
      vertex 25 -3.05 -0.549999
      vertex 25 -10 -4.5
      vertex 25 10 -4.5
    endloop
  endfacet
  facet normal 0 0 -1
    outer loop
      vertex -25 -3 -4.5
      vertex 21 3 -4.5
      vertex 21 -3 -4.5
    endloop
  endfacet
  facet normal -0 0 -1
    outer loop
      vertex 21 3 -4.5
      vertex -25 -3 -4.5
      vertex -25 3 -4.5
    endloop
  endfacet
  facet normal 0 0 -1
    outer loop
      vertex 21 -3 -4.5
      vertex 25 -10 -4.5
      vertex 21 -10 -4.5
    endloop
  endfacet
  facet normal 0 0 -1
    outer loop
      vertex 25 -10 -4.5
      vertex 21 -3 -4.5
      vertex 25 10 -4.5
    endloop
  endfacet
  facet normal 0 0 -1
    outer loop
      vertex 21 3 -4.5
      vertex 25 10 -4.5
      vertex 21 -3 -4.5
    endloop
  endfacet
  facet normal -0 0 -1
    outer loop
      vertex 25 10 -4.5
      vertex 21 3 -4.5
      vertex 21 10 -4.5
    endloop
  endfacet
  facet normal 0 -1 0
    outer loop
      vertex -25 -3 4.5
      vertex -22 -3 -2.4
      vertex -22 -3 4.5
    endloop
  endfacet
  facet normal 0 -1 -0
    outer loop
      vertex -22 -3 -2.4
      vertex -25 -3 -4.5
      vertex -16 -3 -2.4
    endloop
  endfacet
  facet normal 0 -1 0
    outer loop
      vertex -25 -3 -4.5
      vertex -22 -3 -2.4
      vertex -25 -3 4.5
    endloop
  endfacet
  facet normal 0 -1 0
    outer loop
      vertex -16 -3 4.5
      vertex -13.05 -3 -0.549999
      vertex -13.05 -3 4.5
    endloop
  endfacet
  facet normal 0 -1 0
    outer loop
      vertex -16 -3 -2.4
      vertex -13.05 -3 -0.549999
      vertex -16 -3 4.5
    endloop
  endfacet
  facet normal 0 -1 0
    outer loop
      vertex 21 -3 -4.5
      vertex -13.05 -3 -0.549999
      vertex -16 -3 -2.4
    endloop
  endfacet
  facet normal 0 -1 0
    outer loop
      vertex 21 -3 -4.5
      vertex -16 -3 -2.4
      vertex -25 -3 -4.5
    endloop
  endfacet
  facet normal 0 -1 0
    outer loop
      vertex -13.05 -3 -0.549999
      vertex 21 -3 -4.5
      vertex 21 -3 -0.549999
    endloop
  endfacet
  facet normal 0 1 -0
    outer loop
      vertex 21 3 -4.5
      vertex -13.05 3 -0.549999
      vertex 21 3 -0.549999
    endloop
  endfacet
  facet normal 0 1 0
    outer loop
      vertex -25 3 -4.5
      vertex -16 3 -2.4
      vertex 21 3 -4.5
    endloop
  endfacet
  facet normal 0 1 0
    outer loop
      vertex -13.05 3 -0.549999
      vertex 21 3 -4.5
      vertex -16 3 -2.4
    endloop
  endfacet
  facet normal 0 1 -0
    outer loop
      vertex -13.05 3 -0.549999
      vertex -16 3 4.5
      vertex -13.05 3 4.5
    endloop
  endfacet
  facet normal 0 1 0
    outer loop
      vertex -16 3 4.5
      vertex -13.05 3 -0.549999
      vertex -16 3 -2.4
    endloop
  endfacet
  facet normal 0 1 -0
    outer loop
      vertex -22 3 -2.4
      vertex -25 3 4.5
      vertex -22 3 4.5
    endloop
  endfacet
  facet normal 0 1 0
    outer loop
      vertex -22 3 -2.4
      vertex -25 3 -4.5
      vertex -25 3 4.5
    endloop
  endfacet
  facet normal 0 1 0
    outer loop
      vertex -16 3 -2.4
      vertex -25 3 -4.5
      vertex -22 3 -2.4
    endloop
  endfacet
  facet normal -1 0 0
    outer loop
      vertex 21 -3 -4.5
      vertex 21 -3.05 -0.549999
      vertex 21 -3 -0.549999
    endloop
  endfacet
  facet normal -1 0 0
    outer loop
      vertex 21 -10 -4.5
      vertex 21 -3.05 -0.549999
      vertex 21 -3 -4.5
    endloop
  endfacet
  facet normal -1 0 0
    outer loop
      vertex 21 -10 -0.5
      vertex 21 -3.05 -0.549999
      vertex 21 -10 -4.5
    endloop
  endfacet
  facet normal -1 0 0
    outer loop
      vertex 21 -3.05 -0.549999
      vertex 21 -10 -0.5
      vertex 21 -3.05 -0.5
    endloop
  endfacet
  facet normal -1 0 0
    outer loop
      vertex 21 10 -4.5
      vertex 21 3.05 -0.549999
      vertex 21 10 -0.5
    endloop
  endfacet
  facet normal -1 0 0
    outer loop
      vertex 21 3 -4.5
      vertex 21 3.05 -0.549999
      vertex 21 10 -4.5
    endloop
  endfacet
  facet normal -1 -0 0
    outer loop
      vertex 21 3.05 -0.549999
      vertex 21 3 -4.5
      vertex 21 3 -0.549999
    endloop
  endfacet
  facet normal -1 -0 0
    outer loop
      vertex 21 10 -0.5
      vertex 21 3.05 -0.549999
      vertex 21 3.05 -0.5
    endloop
  endfacet
  facet normal -0 0 1
    outer loop
      vertex 21 -3.05 -0.5
      vertex 25 -10 -0.5
      vertex 25 -3.05 -0.5
    endloop
  endfacet
  facet normal 0 0 1
    outer loop
      vertex 25 -10 -0.5
      vertex 21 -3.05 -0.5
      vertex 21 -10 -0.5
    endloop
  endfacet
  facet normal -0 0 1
    outer loop
      vertex 21 10 -0.5
      vertex 25 3.05 -0.5
      vertex 25 10 -0.5
    endloop
  endfacet
  facet normal 0 0 1
    outer loop
      vertex 25 3.05 -0.5
      vertex 21 10 -0.5
      vertex 21 3.05 -0.5
    endloop
  endfacet
  facet normal 0 1 -0
    outer loop
      vertex 25 10 -4.5
      vertex 21 10 -0.5
      vertex 25 10 -0.5
    endloop
  endfacet
  facet normal 0 1 0
    outer loop
      vertex 21 10 -0.5
      vertex 25 10 -4.5
      vertex 21 10 -4.5
    endloop
  endfacet
  facet normal 0 -1 0
    outer loop
      vertex 21 -10 -4.5
      vertex 25 -10 -0.5
      vertex 21 -10 -0.5
    endloop
  endfacet
  facet normal 0 -1 -0
    outer loop
      vertex 25 -10 -0.5
      vertex 21 -10 -4.5
      vertex 25 -10 -4.5
    endloop
  endfacet
  facet normal 1 -0 0
    outer loop
      vertex -22 -3 4.5
      vertex -22 3 -2.4
      vertex -22 3 4.5
    endloop
  endfacet
  facet normal 1 0 0
    outer loop
      vertex -22 3 -2.4
      vertex -22 -3 4.5
      vertex -22 -3 -2.4
    endloop
  endfacet
  facet normal -1 0 0
    outer loop
      vertex -16 -3 -2.4
      vertex -16 3 4.5
      vertex -16 3 -2.4
    endloop
  endfacet
  facet normal -1 -0 0
    outer loop
      vertex -16 3 4.5
      vertex -16 -3 -2.4
      vertex -16 -3 4.5
    endloop
  endfacet
  facet normal -0 0 1
    outer loop
      vertex -22 3 -2.4
      vertex -16 -3 -2.4
      vertex -16 3 -2.4
    endloop
  endfacet
  facet normal 0 0 1
    outer loop
      vertex -16 -3 -2.4
      vertex -22 3 -2.4
      vertex -22 -3 -2.4
    endloop
  endfacet
  facet normal 1 -0 0
    outer loop
      vertex -13.05 -3 4.5
      vertex -13.05 3 -0.549999
      vertex -13.05 3 4.5
    endloop
  endfacet
  facet normal 1 0 0
    outer loop
      vertex -13.05 3 -0.549999
      vertex -13.05 -3 4.5
      vertex -13.05 -3 -0.549999
    endloop
  endfacet
  facet normal 0 -1 0
    outer loop
      vertex 21 3.05 -0.549999
      vertex 25 3.05 -0.5
      vertex 21 3.05 -0.5
    endloop
  endfacet
  facet normal 0 -1 -0
    outer loop
      vertex 25 3.05 -0.5
      vertex 21 3.05 -0.549999
      vertex 25 3.05 -0.549999
    endloop
  endfacet
  facet normal -0 0 1
    outer loop
      vertex -13.05 3 -0.549999
      vertex 21 -3 -0.549999
      vertex 21 3 -0.549999
    endloop
  endfacet
  facet normal 0 0 1
    outer loop
      vertex 21 -3 -0.549999
      vertex -13.05 3 -0.549999
      vertex -13.05 -3 -0.549999
    endloop
  endfacet
  facet normal 0 0 1
    outer loop
      vertex 21 3 -0.549999
      vertex 25 3.05 -0.549999
      vertex 21 3.05 -0.549999
    endloop
  endfacet
  facet normal 0 0 1
    outer loop
      vertex 25 3.05 -0.549999
      vertex 21 3 -0.549999
      vertex 25 -3.05 -0.549999
    endloop
  endfacet
  facet normal -0 0 1
    outer loop
      vertex 21 -3 -0.549999
      vertex 25 -3.05 -0.549999
      vertex 21 3 -0.549999
    endloop
  endfacet
  facet normal 0 0 1
    outer loop
      vertex 25 -3.05 -0.549999
      vertex 21 -3 -0.549999
      vertex 21 -3.05 -0.549999
    endloop
  endfacet
  facet normal 0 1 -0
    outer loop
      vertex 25 -3.05 -0.549999
      vertex 21 -3.05 -0.5
      vertex 25 -3.05 -0.5
    endloop
  endfacet
  facet normal 0 1 0
    outer loop
      vertex 21 -3.05 -0.5
      vertex 25 -3.05 -0.549999
      vertex 21 -3.05 -0.549999
    endloop
  endfacet
endsolid OpenSCAD_Model
