solid OpenSCAD_Model
  facet normal -1 0 0
    outer loop
      vertex -84 -42.5 -4
      vertex -84 42.5 -2
      vertex -84 42.5 -4
    endloop
  endfacet
  facet normal -1 -0 0
    outer loop
      vertex -84 42.5 -2
      vertex -84 -42.5 -4
      vertex -84 -42.5 -2
    endloop
  endfacet
  facet normal -0 0 1
    outer loop
      vertex -80 38.5 0
      vertex 80 -36.5 0
      vertex 80 38.5 0
    endloop
  endfacet
  facet normal 0 0 1
    outer loop
      vertex 80 -36.5 0
      vertex -80 38.5 0
      vertex -80 -36.5 0
    endloop
  endfacet
  facet normal 1 -0 0
    outer loop
      vertex 84 -42.5 -2
      vertex 84 42.5 -4
      vertex 84 42.5 -2
    endloop
  endfacet
  facet normal 1 0 0
    outer loop
      vertex 84 42.5 -4
      vertex 84 -42.5 -2
      vertex 84 -42.5 -4
    endloop
  endfacet
  facet normal 0 1 -0
    outer loop
      vertex 84 42.5 -4
      vertex -84 42.5 -2
      vertex 84 42.5 -2
    endloop
  endfacet
  facet normal 0 1 0
    outer loop
      vertex -84 42.5 -2
      vertex 84 42.5 -4
      vertex -84 42.5 -4
    endloop
  endfacet
  facet normal 0 0 -1
    outer loop
      vertex -84 -42.5 -4
      vertex 84 42.5 -4
      vertex 84 -42.5 -4
    endloop
  endfacet
  facet normal -0 0 -1
    outer loop
      vertex 84 42.5 -4
      vertex -84 -42.5 -4
      vertex -84 42.5 -4
    endloop
  endfacet
  facet normal 0 -1 0
    outer loop
      vertex -84 -42.5 -4
      vertex 84 -42.5 -2
      vertex -84 -42.5 -2
    endloop
  endfacet
  facet normal 0 -1 -0
    outer loop
      vertex 84 -42.5 -2
      vertex -84 -42.5 -4
      vertex 84 -42.5 -4
    endloop
  endfacet
  facet normal 0 0 1
    outer loop
      vertex 80 -36.5 -2
      vertex 84 42.5 -2
      vertex 80 38.5 -2
    endloop
  endfacet
  facet normal 0 0 1
    outer loop
      vertex 84 42.5 -2
      vertex -80 38.5 -2
      vertex 80 38.5 -2
    endloop
  endfacet
  facet normal 0 0 1
    outer loop
      vertex -80 38.5 -2
      vertex -84 42.5 -2
      vertex -80 -36.5 -2
    endloop
  endfacet
  facet normal -0 0 1
    outer loop
      vertex -84 42.5 -2
      vertex -80 38.5 -2
      vertex 84 42.5 -2
    endloop
  endfacet
  facet normal 0 0 1
    outer loop
      vertex 84 42.5 -2
      vertex 80 -36.5 -2
      vertex 84 -42.5 -2
    endloop
  endfacet
  facet normal -0 0 1
    outer loop
      vertex -80 -36.5 -2
      vertex 84 -42.5 -2
      vertex 80 -36.5 -2
    endloop
  endfacet
  facet normal 0 0 1
    outer loop
      vertex -80 -36.5 -2
      vertex -84 -42.5 -2
      vertex 84 -42.5 -2
    endloop
  endfacet
  facet normal 0 0 1
    outer loop
      vertex -84 -42.5 -2
      vertex -80 -36.5 -2
      vertex -84 42.5 -2
    endloop
  endfacet
  facet normal 0 -1 0
    outer loop
      vertex -80 -36.5 -2
      vertex 80 -36.5 0
      vertex -80 -36.5 0
    endloop
  endfacet
  facet normal 0 -1 -0
    outer loop
      vertex 80 -36.5 0
      vertex -80 -36.5 -2
      vertex 80 -36.5 -2
    endloop
  endfacet
  facet normal 0 1 -0
    outer loop
      vertex 80 38.5 -2
      vertex -80 38.5 0
      vertex 80 38.5 0
    endloop
  endfacet
  facet normal 0 1 0
    outer loop
      vertex -80 38.5 0
      vertex 80 38.5 -2
      vertex -80 38.5 -2
    endloop
  endfacet
  facet normal -1 0 0
    outer loop
      vertex -80 -36.5 -2
      vertex -80 38.5 0
      vertex -80 38.5 -2
    endloop
  endfacet
  facet normal -1 -0 0
    outer loop
      vertex -80 38.5 0
      vertex -80 -36.5 -2
      vertex -80 -36.5 0
    endloop
  endfacet
  facet normal 1 -0 0
    outer loop
      vertex 80 -36.5 0
      vertex 80 38.5 -2
      vertex 80 38.5 0
    endloop
  endfacet
  facet normal 1 0 0
    outer loop
      vertex 80 38.5 -2
      vertex 80 -36.5 0
      vertex 80 -36.5 -2
    endloop
  endfacet
endsolid OpenSCAD_Model
