solid OpenSCAD_Model
  facet normal -1 0 0
    outer loop
      vertex -62 -22 -2
      vertex -62 22 2
      vertex -62 22 -2
    endloop
  endfacet
  facet normal -1 -0 0
    outer loop
      vertex -62 22 2
      vertex -62 -22 -2
      vertex -62 -22 2
    endloop
  endfacet
  facet normal 0 0 1
    outer loop
      vertex 62 22 2
      vertex 60.5 20.5 2
      vertex 62 -22 2
    endloop
  endfacet
  facet normal 0 0 1
    outer loop
      vertex 62 22 2
      vertex -60.5 20.5 2
      vertex 60.5 20.5 2
    endloop
  endfacet
  facet normal 0 0 1
    outer loop
      vertex -60.5 20.5 2
      vertex -62 22 2
      vertex -60.5 -20.5 2
    endloop
  endfacet
  facet normal -0 0 1
    outer loop
      vertex -62 22 2
      vertex -60.5 20.5 2
      vertex 62 22 2
    endloop
  endfacet
  facet normal -0 0 1
    outer loop
      vertex 60.5 -20.5 2
      vertex 62 -22 2
      vertex 60.5 20.5 2
    endloop
  endfacet
  facet normal -0 0 1
    outer loop
      vertex -60.5 -20.5 2
      vertex 62 -22 2
      vertex 60.5 -20.5 2
    endloop
  endfacet
  facet normal 0 0 1
    outer loop
      vertex -60.5 -20.5 2
      vertex -62 -22 2
      vertex 62 -22 2
    endloop
  endfacet
  facet normal 0 0 1
    outer loop
      vertex -62 -22 2
      vertex -60.5 -20.5 2
      vertex -62 22 2
    endloop
  endfacet
  facet normal 1 -0 0
    outer loop
      vertex 62 -22 2
      vertex 62 22 -2
      vertex 62 22 2
    endloop
  endfacet
  facet normal 1 0 0
    outer loop
      vertex 62 22 -2
      vertex 62 -22 2
      vertex 62 -22 -2
    endloop
  endfacet
  facet normal 0 1 -0
    outer loop
      vertex 62 22 -2
      vertex -62 22 2
      vertex 62 22 2
    endloop
  endfacet
  facet normal 0 1 0
    outer loop
      vertex -62 22 2
      vertex 62 22 -2
      vertex -62 22 -2
    endloop
  endfacet
  facet normal 0 0 -1
    outer loop
      vertex 62 -22 -2
      vertex 60.5 -20.5 -2
      vertex 62 22 -2
    endloop
  endfacet
  facet normal 0 0 -1
    outer loop
      vertex 62 -22 -2
      vertex -60.5 -20.5 -2
      vertex 60.5 -20.5 -2
    endloop
  endfacet
  facet normal -0 0 -1
    outer loop
      vertex -60.5 -20.5 -2
      vertex -62 -22 -2
      vertex -60.5 20.5 -2
    endloop
  endfacet
  facet normal 0 0 -1
    outer loop
      vertex -62 -22 -2
      vertex -60.5 -20.5 -2
      vertex 62 -22 -2
    endloop
  endfacet
  facet normal 0 0 -1
    outer loop
      vertex 60.5 20.5 -2
      vertex 62 22 -2
      vertex 60.5 -20.5 -2
    endloop
  endfacet
  facet normal 0 0 -1
    outer loop
      vertex -60.5 20.5 -2
      vertex 62 22 -2
      vertex 60.5 20.5 -2
    endloop
  endfacet
  facet normal 0 0 -1
    outer loop
      vertex -60.5 20.5 -2
      vertex -62 22 -2
      vertex 62 22 -2
    endloop
  endfacet
  facet normal 0 0 -1
    outer loop
      vertex -62 22 -2
      vertex -60.5 20.5 -2
      vertex -62 -22 -2
    endloop
  endfacet
  facet normal 0 -1 0
    outer loop
      vertex -62 -22 -2
      vertex 62 -22 2
      vertex -62 -22 2
    endloop
  endfacet
  facet normal 0 -1 -0
    outer loop
      vertex 62 -22 2
      vertex -62 -22 -2
      vertex 62 -22 -2
    endloop
  endfacet
  facet normal 1 -0 0
    outer loop
      vertex -60.5 -20.5 2
      vertex -60.5 20.5 -2
      vertex -60.5 20.5 2
    endloop
  endfacet
  facet normal 1 0 0
    outer loop
      vertex -60.5 20.5 -2
      vertex -60.5 -20.5 2
      vertex -60.5 -20.5 -2
    endloop
  endfacet
  facet normal -1 0 0
    outer loop
      vertex 60.5 -20.5 -2
      vertex 60.5 20.5 2
      vertex 60.5 20.5 -2
    endloop
  endfacet
  facet normal -1 -0 0
    outer loop
      vertex 60.5 20.5 2
      vertex 60.5 -20.5 -2
      vertex 60.5 -20.5 2
    endloop
  endfacet
  facet normal 0 -1 0
    outer loop
      vertex -60.5 20.5 -2
      vertex 60.5 20.5 2
      vertex -60.5 20.5 2
    endloop
  endfacet
  facet normal 0 -1 -0
    outer loop
      vertex 60.5 20.5 2
      vertex -60.5 20.5 -2
      vertex 60.5 20.5 -2
    endloop
  endfacet
  facet normal 0 1 -0
    outer loop
      vertex 60.5 -20.5 -2
      vertex -60.5 -20.5 2
      vertex 60.5 -20.5 2
    endloop
  endfacet
  facet normal 0 1 0
    outer loop
      vertex -60.5 -20.5 2
      vertex 60.5 -20.5 -2
      vertex -60.5 -20.5 -2
    endloop
  endfacet
endsolid OpenSCAD_Model
