solid OpenSCAD_Model
  facet normal -1 0 0
    outer loop
      vertex -62 -22 0.0999994
      vertex -62 22 2
      vertex -62 22 0.0999994
    endloop
  endfacet
  facet normal -1 -0 0
    outer loop
      vertex -62 22 2
      vertex -62 -22 0.0999994
      vertex -62 -22 2
    endloop
  endfacet
  facet normal 0 0 1
    outer loop
      vertex 62 22 2
      vertex 60.5 20.5 2
      vertex 62 -22 2
    endloop
  endfacet
  facet normal 0 0 1
    outer loop
      vertex 62 22 2
      vertex -60.5 20.5 2
      vertex 60.5 20.5 2
    endloop
  endfacet
  facet normal 0 0 1
    outer loop
      vertex -60.5 20.5 2
      vertex -62 22 2
      vertex -60.5 -20.5 2
    endloop
  endfacet
  facet normal -0 0 1
    outer loop
      vertex -62 22 2
      vertex -60.5 20.5 2
      vertex 62 22 2
    endloop
  endfacet
  facet normal -0 0 1
    outer loop
      vertex 60.5 -20.5 2
      vertex 62 -22 2
      vertex 60.5 20.5 2
    endloop
  endfacet
  facet normal -0 0 1
    outer loop
      vertex -60.5 -20.5 2
      vertex 62 -22 2
      vertex 60.5 -20.5 2
    endloop
  endfacet
  facet normal 0 0 1
    outer loop
      vertex -60.5 -20.5 2
      vertex -62 -22 2
      vertex 62 -22 2
    endloop
  endfacet
  facet normal 0 0 1
    outer loop
      vertex -62 -22 2
      vertex -60.5 -20.5 2
      vertex -62 22 2
    endloop
  endfacet
  facet normal 1 -0 0
    outer loop
      vertex 62 -22 2
      vertex 62 22 0.0999994
      vertex 62 22 2
    endloop
  endfacet
  facet normal 1 0 0
    outer loop
      vertex 62 22 0.0999994
      vertex 62 -22 2
      vertex 62 -22 0.0999994
    endloop
  endfacet
  facet normal 0 1 -0
    outer loop
      vertex 62 22 0.0999994
      vertex -62 22 2
      vertex 62 22 2
    endloop
  endfacet
  facet normal 0 1 0
    outer loop
      vertex -62 22 2
      vertex 62 22 0.0999994
      vertex -62 22 0.0999994
    endloop
  endfacet
  facet normal 0 -1 0
    outer loop
      vertex -62 -22 0.0999994
      vertex 62 -22 2
      vertex -62 -22 2
    endloop
  endfacet
  facet normal 0 -1 -0
    outer loop
      vertex 62 -22 2
      vertex -62 -22 0.0999994
      vertex 62 -22 0.0999994
    endloop
  endfacet
  facet normal 1 0 0
    outer loop
      vertex -60.5 -20.5 0.0999994
      vertex -60.5 20.5 0.0999994
      vertex -60.5 20.5 2
    endloop
  endfacet
  facet normal 1 0 0
    outer loop
      vertex -60.5 -20.5 0.0999994
      vertex -60.5 20.5 2
      vertex -60.5 -20.5 2
    endloop
  endfacet
  facet normal 1 0 0
    outer loop
      vertex -60.5 20.5 0.0999994
      vertex -60.5 -20.5 0.0999994
      vertex -60.5 20.5 -1.5
    endloop
  endfacet
  facet normal 1 0 0
    outer loop
      vertex -60.5 20.5 -1.5
      vertex -60.5 -20.5 0.0999994
      vertex -60.5 -20.5 -1.5
    endloop
  endfacet
  facet normal -1 0 0
    outer loop
      vertex 60.5 -20.5 0.0999994
      vertex 60.5 20.5 0.0999994
      vertex 60.5 20.5 -1.5
    endloop
  endfacet
  facet normal -1 0 0
    outer loop
      vertex 60.5 -20.5 0.0999994
      vertex 60.5 20.5 -1.5
      vertex 60.5 -20.5 -1.5
    endloop
  endfacet
  facet normal -1 0 0
    outer loop
      vertex 60.5 20.5 0.0999994
      vertex 60.5 -20.5 0.0999994
      vertex 60.5 20.5 2
    endloop
  endfacet
  facet normal -1 -0 0
    outer loop
      vertex 60.5 20.5 2
      vertex 60.5 -20.5 0.0999994
      vertex 60.5 -20.5 2
    endloop
  endfacet
  facet normal 0 1 -0
    outer loop
      vertex 60.5 -20.5 0.0999994
      vertex -60.5 -20.5 2
      vertex 60.5 -20.5 2
    endloop
  endfacet
  facet normal 0 1 0
    outer loop
      vertex 60.5 -20.5 0.0999994
      vertex -60.5 -20.5 0.0999994
      vertex -60.5 -20.5 2
    endloop
  endfacet
  facet normal 0 1 -0
    outer loop
      vertex 60.5 -20.5 -1.5
      vertex -60.5 -20.5 0.0999994
      vertex 60.5 -20.5 0.0999994
    endloop
  endfacet
  facet normal 0 1 0
    outer loop
      vertex -60.5 -20.5 0.0999994
      vertex 60.5 -20.5 -1.5
      vertex -60.5 -20.5 -1.5
    endloop
  endfacet
  facet normal 0 -1 0
    outer loop
      vertex -60.5 20.5 0.0999994
      vertex 60.5 20.5 2
      vertex -60.5 20.5 2
    endloop
  endfacet
  facet normal 0 -1 0
    outer loop
      vertex -60.5 20.5 0.0999994
      vertex 60.5 20.5 0.0999994
      vertex 60.5 20.5 2
    endloop
  endfacet
  facet normal 0 -1 0
    outer loop
      vertex -60.5 20.5 -1.5
      vertex 60.5 20.5 0.0999994
      vertex -60.5 20.5 0.0999994
    endloop
  endfacet
  facet normal 0 -1 -0
    outer loop
      vertex 60.5 20.5 0.0999994
      vertex -60.5 20.5 -1.5
      vertex 60.5 20.5 -1.5
    endloop
  endfacet
  facet normal -1 0 0
    outer loop
      vertex -85 -37.5 -2.5
      vertex -85 37.5 2.5
      vertex -85 37.5 -2.5
    endloop
  endfacet
  facet normal -1 -0 0
    outer loop
      vertex -85 37.5 2.5
      vertex -85 -37.5 -2.5
      vertex -85 -37.5 2.5
    endloop
  endfacet
  facet normal 0 0 1
    outer loop
      vertex 85 37.5 2.5
      vertex 84 36.5 2.5
      vertex 85 -37.5 2.5
    endloop
  endfacet
  facet normal 0 0 1
    outer loop
      vertex 85 37.5 2.5
      vertex -84 36.5 2.5
      vertex 84 36.5 2.5
    endloop
  endfacet
  facet normal 0 0 1
    outer loop
      vertex -84 36.5 2.5
      vertex -85 37.5 2.5
      vertex -84 -36.5 2.5
    endloop
  endfacet
  facet normal -0 0 1
    outer loop
      vertex -85 37.5 2.5
      vertex -84 36.5 2.5
      vertex 85 37.5 2.5
    endloop
  endfacet
  facet normal -0 0 1
    outer loop
      vertex 84 -36.5 2.5
      vertex 85 -37.5 2.5
      vertex 84 36.5 2.5
    endloop
  endfacet
  facet normal -0 0 1
    outer loop
      vertex -84 -36.5 2.5
      vertex 85 -37.5 2.5
      vertex 84 -36.5 2.5
    endloop
  endfacet
  facet normal 0 0 1
    outer loop
      vertex -84 -36.5 2.5
      vertex -85 -37.5 2.5
      vertex 85 -37.5 2.5
    endloop
  endfacet
  facet normal 0 0 1
    outer loop
      vertex -85 -37.5 2.5
      vertex -84 -36.5 2.5
      vertex -85 37.5 2.5
    endloop
  endfacet
  facet normal 1 -0 0
    outer loop
      vertex 85 -37.5 2.5
      vertex 85 37.5 -2.5
      vertex 85 37.5 2.5
    endloop
  endfacet
  facet normal 1 0 0
    outer loop
      vertex 85 37.5 -2.5
      vertex 85 -37.5 2.5
      vertex 85 -37.5 -2.5
    endloop
  endfacet
  facet normal 0 0 -1
    outer loop
      vertex 85 -37.5 -2.5
      vertex 59.5 -19.5 -2.5
      vertex 85 37.5 -2.5
    endloop
  endfacet
  facet normal 0 0 -1
    outer loop
      vertex 85 -37.5 -2.5
      vertex -59.5 -19.5 -2.5
      vertex 59.5 -19.5 -2.5
    endloop
  endfacet
  facet normal -0 0 -1
    outer loop
      vertex -59.5 -19.5 -2.5
      vertex -85 -37.5 -2.5
      vertex -59.5 19.5 -2.5
    endloop
  endfacet
  facet normal 0 0 -1
    outer loop
      vertex -85 -37.5 -2.5
      vertex -59.5 -19.5 -2.5
      vertex 85 -37.5 -2.5
    endloop
  endfacet
  facet normal 0 0 -1
    outer loop
      vertex 59.5 19.5 -2.5
      vertex 85 37.5 -2.5
      vertex 59.5 -19.5 -2.5
    endloop
  endfacet
  facet normal 0 0 -1
    outer loop
      vertex -59.5 19.5 -2.5
      vertex 85 37.5 -2.5
      vertex 59.5 19.5 -2.5
    endloop
  endfacet
  facet normal 0 0 -1
    outer loop
      vertex -59.5 19.5 -2.5
      vertex -85 37.5 -2.5
      vertex 85 37.5 -2.5
    endloop
  endfacet
  facet normal 0 0 -1
    outer loop
      vertex -85 37.5 -2.5
      vertex -59.5 19.5 -2.5
      vertex -85 -37.5 -2.5
    endloop
  endfacet
  facet normal 0 -1 0
    outer loop
      vertex -85 -37.5 -2.5
      vertex 85 -37.5 2.5
      vertex -85 -37.5 2.5
    endloop
  endfacet
  facet normal 0 -1 -0
    outer loop
      vertex 85 -37.5 2.5
      vertex -85 -37.5 -2.5
      vertex 85 -37.5 -2.5
    endloop
  endfacet
  facet normal 0 1 -0
    outer loop
      vertex 85 37.5 -2.5
      vertex -85 37.5 2.5
      vertex 85 37.5 2.5
    endloop
  endfacet
  facet normal 0 1 0
    outer loop
      vertex -85 37.5 2.5
      vertex 85 37.5 -2.5
      vertex -85 37.5 -2.5
    endloop
  endfacet
  facet normal 1 -0 0
    outer loop
      vertex -59.5 -19.5 -1.5
      vertex -59.5 19.5 -2.5
      vertex -59.5 19.5 -1.5
    endloop
  endfacet
  facet normal 1 0 0
    outer loop
      vertex -59.5 19.5 -2.5
      vertex -59.5 -19.5 -1.5
      vertex -59.5 -19.5 -2.5
    endloop
  endfacet
  facet normal -1 0 0
    outer loop
      vertex 59.5 -19.5 -2.5
      vertex 59.5 19.5 -1.5
      vertex 59.5 19.5 -2.5
    endloop
  endfacet
  facet normal -1 -0 0
    outer loop
      vertex 59.5 19.5 -1.5
      vertex 59.5 -19.5 -2.5
      vertex 59.5 -19.5 -1.5
    endloop
  endfacet
  facet normal 0 -1 0
    outer loop
      vertex -59.5 19.5 -2.5
      vertex 59.5 19.5 -1.5
      vertex -59.5 19.5 -1.5
    endloop
  endfacet
  facet normal 0 -1 -0
    outer loop
      vertex 59.5 19.5 -1.5
      vertex -59.5 19.5 -2.5
      vertex 59.5 19.5 -2.5
    endloop
  endfacet
  facet normal 0 1 -0
    outer loop
      vertex 59.5 -19.5 -2.5
      vertex -59.5 -19.5 -1.5
      vertex 59.5 -19.5 -1.5
    endloop
  endfacet
  facet normal 0 1 0
    outer loop
      vertex -59.5 -19.5 -1.5
      vertex 59.5 -19.5 -2.5
      vertex -59.5 -19.5 -2.5
    endloop
  endfacet
  facet normal 0 0 1
    outer loop
      vertex 60.5 20.5 -1.5
      vertex 59.5 19.5 -1.5
      vertex 60.5 -20.5 -1.5
    endloop
  endfacet
  facet normal 0 0 1
    outer loop
      vertex 60.5 20.5 -1.5
      vertex -59.5 19.5 -1.5
      vertex 59.5 19.5 -1.5
    endloop
  endfacet
  facet normal 0 0 1
    outer loop
      vertex -59.5 19.5 -1.5
      vertex -60.5 20.5 -1.5
      vertex -59.5 -19.5 -1.5
    endloop
  endfacet
  facet normal -0 0 1
    outer loop
      vertex -60.5 20.5 -1.5
      vertex -59.5 19.5 -1.5
      vertex 60.5 20.5 -1.5
    endloop
  endfacet
  facet normal -0 0 1
    outer loop
      vertex 59.5 -19.5 -1.5
      vertex 60.5 -20.5 -1.5
      vertex 59.5 19.5 -1.5
    endloop
  endfacet
  facet normal -0 0 1
    outer loop
      vertex -59.5 -19.5 -1.5
      vertex 60.5 -20.5 -1.5
      vertex 59.5 -19.5 -1.5
    endloop
  endfacet
  facet normal 0 0 1
    outer loop
      vertex -59.5 -19.5 -1.5
      vertex -60.5 -20.5 -1.5
      vertex 60.5 -20.5 -1.5
    endloop
  endfacet
  facet normal 0 0 1
    outer loop
      vertex -60.5 -20.5 -1.5
      vertex -59.5 -19.5 -1.5
      vertex -60.5 20.5 -1.5
    endloop
  endfacet
  facet normal 1 -0 0
    outer loop
      vertex -84 -36.5 2.5
      vertex -84 36.5 0.0999994
      vertex -84 36.5 2.5
    endloop
  endfacet
  facet normal 1 0 0
    outer loop
      vertex -84 36.5 0.0999994
      vertex -84 -36.5 2.5
      vertex -84 -36.5 0.0999994
    endloop
  endfacet
  facet normal -1 0 0
    outer loop
      vertex 84 -36.5 0.0999994
      vertex 84 36.5 2.5
      vertex 84 36.5 0.0999994
    endloop
  endfacet
  facet normal -1 -0 0
    outer loop
      vertex 84 36.5 2.5
      vertex 84 -36.5 0.0999994
      vertex 84 -36.5 2.5
    endloop
  endfacet
  facet normal 0 -1 0
    outer loop
      vertex -84 36.5 0.0999994
      vertex 84 36.5 2.5
      vertex -84 36.5 2.5
    endloop
  endfacet
  facet normal 0 -1 -0
    outer loop
      vertex 84 36.5 2.5
      vertex -84 36.5 0.0999994
      vertex 84 36.5 0.0999994
    endloop
  endfacet
  facet normal 0 0 1
    outer loop
      vertex 84 36.5 0.0999994
      vertex 62 22 0.0999994
      vertex 84 -36.5 0.0999994
    endloop
  endfacet
  facet normal 0 0 1
    outer loop
      vertex 84 36.5 0.0999994
      vertex -62 22 0.0999994
      vertex 62 22 0.0999994
    endloop
  endfacet
  facet normal 0 0 1
    outer loop
      vertex -62 22 0.0999994
      vertex -84 36.5 0.0999994
      vertex -62 -22 0.0999994
    endloop
  endfacet
  facet normal -0 0 1
    outer loop
      vertex -84 36.5 0.0999994
      vertex -62 22 0.0999994
      vertex 84 36.5 0.0999994
    endloop
  endfacet
  facet normal -0 0 1
    outer loop
      vertex 62 -22 0.0999994
      vertex 84 -36.5 0.0999994
      vertex 62 22 0.0999994
    endloop
  endfacet
  facet normal -0 0 1
    outer loop
      vertex -62 -22 0.0999994
      vertex 84 -36.5 0.0999994
      vertex 62 -22 0.0999994
    endloop
  endfacet
  facet normal 0 0 1
    outer loop
      vertex -62 -22 0.0999994
      vertex -84 -36.5 0.0999994
      vertex 84 -36.5 0.0999994
    endloop
  endfacet
  facet normal 0 0 1
    outer loop
      vertex -84 -36.5 0.0999994
      vertex -62 -22 0.0999994
      vertex -84 36.5 0.0999994
    endloop
  endfacet
  facet normal 0 1 -0
    outer loop
      vertex 84 -36.5 0.0999994
      vertex -84 -36.5 2.5
      vertex 84 -36.5 2.5
    endloop
  endfacet
  facet normal 0 1 0
    outer loop
      vertex -84 -36.5 2.5
      vertex 84 -36.5 0.0999994
      vertex -84 -36.5 0.0999994
    endloop
  endfacet
endsolid OpenSCAD_Model
